<svg width="22" height="24" viewBox="0 0 22 24" fill="none" xmlns="http://www.w3.org/2000/svg">
<path d="M19 4.99998H16.3333C16.3333 2.42165 13.9467 0.333313 11 0.333313C8.05333 0.333313 5.66666 2.42165 5.66666 4.99998H2.99999C1.53333 4.99998 0.333328 6.04998 0.333328 7.33331V21.3333C0.333328 22.6166 1.53333 23.6666 2.99999 23.6666H19C20.4667 23.6666 21.6667 22.6166 21.6667 21.3333V7.33331C21.6667 6.04998 20.4667 4.99998 19 4.99998ZM11 2.66665C12.4667 2.66665 13.6667 3.71665 13.6667 4.99998H8.33333C8.33333 3.71665 9.53333 2.66665 11 2.66665ZM19 21.3333H2.99999V7.33331H5.66666V9.66665C5.66666 10.3083 6.26666 10.8333 7 10.8333C7.73333 10.8333 8.33333 10.3083 8.33333 9.66665V7.33331H13.6667V9.66665C13.6667 10.3083 14.2667 10.8333 15 10.8333C15.7333 10.8333 16.3333 10.3083 16.3333 9.66665V7.33331H19V21.3333Z" fill="white"/>
</svg>
