<svg width="24" height="24" viewBox="0 0 24 24" fill="none" xmlns="http://www.w3.org/2000/svg">
<path d="M19.497 7.98903L12 15.297L4.503 7.98903C4.36905 7.85819 4.18924 7.78495 4.002 7.78495C3.81476 7.78495 3.63495 7.85819 3.501 7.98903C3.43614 8.05257 3.38462 8.12842 3.34944 8.21213C3.31427 8.29584 3.29615 8.38573 3.29615 8.47653C3.29615 8.56733 3.31427 8.65721 3.34944 8.74092C3.38462 8.82463 3.43614 8.90048 3.501 8.96403L11.4765 16.74C11.6166 16.8765 11.8044 16.953 12 16.953C12.1956 16.953 12.3834 16.8765 12.5235 16.74L20.499 8.96553C20.5643 8.90193 20.6162 8.8259 20.6517 8.74191C20.6871 8.65792 20.7054 8.56769 20.7054 8.47653C20.7054 8.38537 20.6871 8.29513 20.6517 8.21114C20.6162 8.12715 20.5643 8.05112 20.499 7.98753C20.3651 7.85669 20.1852 7.78345 19.998 7.78345C19.8108 7.78345 19.6309 7.85669 19.497 7.98753V7.98903Z" fill="black"/>
</svg>