<svg width="16" height="16" viewBox="0 0 16 16" fill="none" xmlns="http://www.w3.org/2000/svg">
<path d="M15.8407 1.58936C15.9427 1.69277 16.0001 1.83284 16.0001 1.97886C16.0001 2.12489 15.9427 2.26495 15.8407 2.36837L14.7014 3.52034L12.5168 1.3135L13.6561 0.161533C13.7585 0.0581035 13.8974 0 14.0422 0C14.187 0 14.3259 0.0581035 14.4283 0.161533L15.8407 1.58825V1.58936ZM13.9292 4.29935L11.7445 2.09251L4.30265 9.61121C4.24253 9.67192 4.19727 9.74598 4.17048 9.82748L3.29117 12.4911C3.27523 12.5397 3.27296 12.5918 3.28463 12.6416C3.2963 12.6913 3.32145 12.7369 3.35727 12.773C3.39308 12.8092 3.43814 12.8346 3.48743 12.8464C3.53671 12.8582 3.58827 12.8559 3.63634 12.8398L6.27317 11.9516C6.35374 11.9248 6.42704 11.8795 6.48726 11.8191L13.9292 4.30046V4.29935Z" fill="#8E8E93"/>
<path fill-rule="evenodd" clip-rule="evenodd" d="M0 14.3449C0 14.7838 0.172623 15.2048 0.479894 15.5152C0.787165 15.8256 1.20391 16 1.63846 16H13.6538C14.0884 16 14.5051 15.8256 14.8124 15.5152C15.1197 15.2048 15.2923 14.7838 15.2923 14.3449V7.72437C15.2923 7.57804 15.2348 7.43771 15.1323 7.33425C15.0299 7.23078 14.891 7.17266 14.7461 7.17266C14.6013 7.17266 14.4624 7.23078 14.36 7.33425C14.2575 7.43771 14.2 7.57804 14.2 7.72437V14.3449C14.2 14.4912 14.1425 14.6315 14.04 14.735C13.9376 14.8385 13.7987 14.8966 13.6538 14.8966H1.63846C1.49361 14.8966 1.3547 14.8385 1.25227 14.735C1.14985 14.6315 1.09231 14.4912 1.09231 14.3449V2.20727C1.09231 2.06095 1.14985 1.92062 1.25227 1.81716C1.3547 1.71369 1.49361 1.65557 1.63846 1.65557H8.73846C8.88331 1.65557 9.02222 1.59744 9.12465 1.49397C9.22707 1.39051 9.28461 1.25018 9.28461 1.10386C9.28461 0.957534 9.22707 0.817204 9.12465 0.713739C9.02222 0.610273 8.88331 0.552147 8.73846 0.552147H1.63846C1.20391 0.552147 0.787165 0.726526 0.479894 1.03692C0.172623 1.34732 0 1.76831 0 2.20727V14.3449Z" fill="#8E8E93"/>
</svg>
