<svg width="7" height="12" viewBox="0 0 7 12" fill="none" xmlns="http://www.w3.org/2000/svg">
<path d="M5.522 0.334001L0.339999 5.65C0.248985 5.74338 0.198048 5.86861 0.198048 5.999C0.198048 6.12939 0.248985 6.25463 0.339999 6.348L5.522 11.666C5.56439 11.7095 5.61508 11.7442 5.67107 11.7678C5.72707 11.7914 5.78722 11.8036 5.848 11.8036C5.90877 11.8036 5.96893 11.7914 6.02492 11.7678C6.08091 11.7442 6.1316 11.7095 6.174 11.666C6.26122 11.5767 6.31005 11.4568 6.31005 11.332C6.31005 11.2072 6.26122 11.0873 6.174 10.998L1.301 5.999L6.174 1.001C6.26092 0.911749 6.30956 0.792087 6.30956 0.667501C6.30956 0.542916 6.26092 0.423253 6.174 0.334001C6.1316 0.290458 6.08091 0.255849 6.02492 0.232218C5.96893 0.208586 5.90877 0.196411 5.848 0.196411C5.78722 0.196411 5.72707 0.208586 5.67107 0.232218C5.61508 0.255849 5.56439 0.290458 5.522 0.334001Z" fill="white"/>
</svg>
