<svg width="17" height="18" viewBox="0 0 17 18" fill="none" xmlns="http://www.w3.org/2000/svg">
<path d="M3.33331 14H4.99998V15.6667H15V2.33333H4.99998V4H3.33331V1.5C3.33331 1.27898 3.42111 1.06702 3.57739 0.910742C3.73367 0.754461 3.94563 0.666664 4.16665 0.666664H15.8333C16.0543 0.666664 16.2663 0.754461 16.4226 0.910742C16.5788 1.06702 16.6666 1.27898 16.6666 1.5V16.5C16.6666 16.721 16.5788 16.933 16.4226 17.0893C16.2663 17.2455 16.0543 17.3333 15.8333 17.3333H4.16665C3.94563 17.3333 3.73367 17.2455 3.57739 17.0893C3.42111 16.933 3.33331 16.721 3.33331 16.5V14ZM4.99998 8.16666H10.8333V9.83333H4.99998V12.3333L0.833313 9L4.99998 5.66666V8.16666Z" fill="#8E8E93"/>
</svg>
