<svg width="20" height="20" viewBox="0 0 20 20" fill="none" xmlns="http://www.w3.org/2000/svg">
<path fill-rule="evenodd" clip-rule="evenodd" d="M10 19C14.9705 19 19 14.9705 19 10C19 5.0295 14.9705 1 10 1C5.0295 1 1 5.0295 1 10C1 14.9705 5.0295 19 10 19ZM10 20C15.523 20 20 15.523 20 10C20 4.477 15.523 0 10 0C4.477 0 0 4.477 0 10C0 15.523 4.477 20 10 20Z" fill="#E4DCCF"/>
<path d="M4 15.815C4 15.2985 4.386 14.862 4.9 14.805C8.7575 14.378 11.26 14.4165 15.109 14.8145C15.3012 14.8347 15.4834 14.9104 15.6333 15.0324C15.7831 15.1544 15.8942 15.3175 15.953 15.5016C16.0117 15.6857 16.0156 15.8829 15.9641 16.0692C15.9126 16.2555 15.808 16.4227 15.663 16.5505C11.1205 20.51 8.5245 20.4555 4.32 16.5545C4.115 16.3645 4 16.0945 4 15.8155V15.815Z" fill="#E4DCCF"/>
<path fill-rule="evenodd" clip-rule="evenodd" d="M15.0575 15.3115C11.239 14.9165 8.7725 14.8795 4.9545 15.302C4.82882 15.3167 4.71296 15.3771 4.6291 15.4719C4.54524 15.5666 4.49928 15.689 4.5 15.8155C4.5 15.9585 4.5595 16.094 4.66 16.188C6.744 18.121 8.323 18.9945 9.8665 19C11.4155 19.0055 13.0795 18.139 15.3345 16.174C15.4061 16.1102 15.4577 16.027 15.483 15.9345C15.5082 15.842 15.506 15.7441 15.4767 15.6528C15.4473 15.5615 15.3921 15.4807 15.3177 15.4202C15.2433 15.3597 15.1529 15.3221 15.0575 15.312V15.3115ZM4.845 14.308C8.743 13.8765 11.282 13.9155 15.161 14.317C15.4502 14.3472 15.7242 14.461 15.9497 14.6446C16.1751 14.8281 16.3422 15.0734 16.4304 15.3505C16.5185 15.6275 16.524 15.9242 16.4462 16.2043C16.3683 16.4844 16.2105 16.7357 15.992 16.9275C13.7045 18.9215 11.7995 20.0075 9.8635 20C7.922 19.993 6.101 18.8885 3.9805 16.921C3.82868 16.7796 3.70765 16.6084 3.62497 16.4181C3.5423 16.2278 3.49976 16.0225 3.5 15.815C3.49927 15.4422 3.6361 15.0823 3.88429 14.8041C4.13247 14.5259 4.47455 14.3491 4.845 14.3075V14.308Z" fill="#E4DCCF"/>
<path d="M14 8C14 9.06087 13.5786 10.0783 12.8284 10.8284C12.0783 11.5786 11.0609 12 10 12C8.93913 12 7.92172 11.5786 7.17157 10.8284C6.42143 10.0783 6 9.06087 6 8C6 6.93913 6.42143 5.92172 7.17157 5.17157C7.92172 4.42143 8.93913 4 10 4C11.0609 4 12.0783 4.42143 12.8284 5.17157C13.5786 5.92172 14 6.93913 14 8Z" fill="#E4DCCF"/>
<path fill-rule="evenodd" clip-rule="evenodd" d="M10 11C10.7956 11 11.5587 10.6839 12.1213 10.1213C12.6839 9.55871 13 8.79565 13 8C13 7.20435 12.6839 6.44129 12.1213 5.87868C11.5587 5.31607 10.7956 5 10 5C9.20435 5 8.44129 5.31607 7.87868 5.87868C7.31607 6.44129 7 7.20435 7 8C7 8.79565 7.31607 9.55871 7.87868 10.1213C8.44129 10.6839 9.20435 11 10 11ZM10 12C11.0609 12 12.0783 11.5786 12.8284 10.8284C13.5786 10.0783 14 9.06087 14 8C14 6.93913 13.5786 5.92172 12.8284 5.17157C12.0783 4.42143 11.0609 4 10 4C8.93913 4 7.92172 4.42143 7.17157 5.17157C6.42143 5.92172 6 6.93913 6 8C6 9.06087 6.42143 10.0783 7.17157 10.8284C7.92172 11.5786 8.93913 12 10 12Z" fill="#E4DCCF"/>
</svg>
