<svg width="24" height="24" viewBox="0 0 24 24" fill="none" xmlns="http://www.w3.org/2000/svg">
<path d="M15.75 12H17.25V13.5H15.75V12ZM6.75 12H12.75V13.5H6.75V12ZM15.75 9H17.25V10.5H15.75V9ZM6.75 9H12.75V10.5H6.75V9ZM6.75 6H17.25V7.5H6.75V6Z" fill="black"/>
<path d="M18.75 1.5H5.25C4.8523 1.5004 4.471 1.65856 4.18978 1.93978C3.90856 2.221 3.7504 2.6023 3.75 3V21.75C3.75 21.9489 3.82902 22.1397 3.96967 22.2803C4.11032 22.421 4.30109 22.5 4.5 22.5H5.25C5.36644 22.5001 5.4813 22.473 5.58545 22.4209C5.6896 22.3688 5.78018 22.2932 5.85 22.2L7.5 20.0002L9.15 22.2C9.22282 22.2887 9.3144 22.3602 9.41815 22.4092C9.5219 22.4583 9.63523 22.4837 9.75 22.4837C9.86477 22.4837 9.9781 22.4583 10.0819 22.4092C10.1856 22.3602 10.2772 22.2887 10.35 22.2L12 20.0002L13.65 22.2C13.7228 22.2887 13.8144 22.3602 13.9181 22.4092C14.0219 22.4583 14.1352 22.4837 14.25 22.4837C14.3648 22.4837 14.4781 22.4583 14.5819 22.4092C14.6856 22.3602 14.7772 22.2887 14.85 22.2L16.5 20.0002L18.15 22.2C18.2199 22.2931 18.3104 22.3687 18.4146 22.4208C18.5187 22.4729 18.6336 22.5 18.75 22.5H19.5C19.6989 22.5 19.8897 22.421 20.0303 22.2803C20.171 22.1397 20.25 21.9489 20.25 21.75V3C20.2496 2.6023 20.0914 2.221 19.8102 1.93978C19.529 1.65856 19.1477 1.5004 18.75 1.5ZM18.75 20.4998L17.1 18.3C17.0272 18.2113 16.9356 18.1398 16.8319 18.0908C16.7281 18.0417 16.6148 18.0163 16.5 18.0163C16.3852 18.0163 16.2719 18.0417 16.1681 18.0908C16.0644 18.1398 15.9728 18.2113 15.9 18.3L14.25 20.4998L12.6 18.3C12.5272 18.2113 12.4356 18.1398 12.3319 18.0908C12.2281 18.0417 12.1148 18.0163 12 18.0163C11.8852 18.0163 11.7719 18.0417 11.6681 18.0908C11.5644 18.1398 11.4728 18.2113 11.4 18.3L9.75 20.4998L8.1 18.3C8.02718 18.2113 7.9356 18.1398 7.83185 18.0908C7.7281 18.0417 7.61477 18.0163 7.5 18.0163C7.38523 18.0163 7.2719 18.0417 7.16815 18.0908C7.0644 18.1398 6.97282 18.2113 6.9 18.3L5.25 20.4998V3H18.75V20.4998Z" fill="black"/>
</svg>