<svg width="15" height="17" viewBox="0 0 15 17" fill="none" xmlns="http://www.w3.org/2000/svg">
<path fill-rule="evenodd" clip-rule="evenodd" d="M10.5 2.75H14.25V4H13V15.25L11.75 16.5H3L1.75 15.25V4H0.5V2.75H4.25V1.5C4.25 1.16848 4.3817 0.850537 4.61612 0.616116C4.85054 0.381696 5.16848 0.25 5.5 0.25H9.25C9.58152 0.25 9.89946 0.381696 10.1339 0.616116C10.3683 0.850537 10.5 1.16848 10.5 1.5V2.75ZM9.25 1.5H5.5V2.75H9.25V1.5ZM3 15.25H11.75V4H3V15.25ZM5.5 5.25H4.25V14H5.5V5.25ZM6.75 5.25H8V14H6.75V5.25ZM9.25 5.25H10.5V14H9.25V5.25Z" fill="#8E8E93"/>
</svg>
