<svg width="24" height="24" viewBox="0 0 24 24" fill="none" xmlns="http://www.w3.org/2000/svg">
<g clip-path="url(#clip0_29_421)">
<path fill-rule="evenodd" clip-rule="evenodd" d="M0.164902 4.7805C0.235218 4.69293 0.324306 4.62227 0.425592 4.57372C0.526877 4.52517 0.637774 4.49998 0.750101 4.5H20.2567C20.369 4.50004 20.4798 4.52527 20.581 4.57383C20.6822 4.62238 20.7713 4.69302 20.8415 4.78054C20.9118 4.86806 20.9615 4.97023 20.9871 5.07952C21.0126 5.18881 21.0132 5.30242 20.989 5.412L20.6589 6.8985C21.7808 7.19795 22.7437 7.91911 23.3463 8.91137C23.949 9.90363 24.1449 11.0903 23.8932 12.2235C23.6415 13.3568 22.9615 14.349 21.9953 14.993C21.0292 15.6369 19.8515 15.8829 18.7082 15.6795L18.5101 16.5645C18.3248 17.3971 17.8611 18.1417 17.1955 18.6753C16.5299 19.209 15.7021 19.4999 14.8489 19.5H6.15794C5.30448 19.4998 4.4766 19.2087 3.81096 18.6747C3.14532 18.1408 2.68172 17.3959 2.4967 16.563L0.017852 5.412C-0.00622265 5.30268 -0.00551123 5.18935 0.019934 5.08034C0.0453793 4.97132 0.094913 4.86938 0.164902 4.782V4.7805ZM19.0323 14.2125C19.7896 14.3377 20.566 14.168 21.2019 13.7385C21.8379 13.3089 22.2851 12.6522 22.4515 11.9032C22.6179 11.1542 22.4909 10.3699 22.0966 9.7116C21.7024 9.05332 21.0708 8.57107 20.3318 8.364L19.0323 14.214V14.2125ZM1.68642 6L3.96119 16.2375C4.07215 16.7373 4.35029 17.1843 4.74968 17.5047C5.14906 17.8252 5.64583 17.9999 6.15794 18H14.8489C15.361 17.9999 15.8578 17.8252 16.2572 17.5047C16.6566 17.1843 16.9347 16.7373 17.0456 16.2375L19.3219 6H1.68492H1.68642Z" fill="#444444"/>
</g>
<defs>
<clipPath id="clip0_29_421">
<rect width="24" height="24" fill="white"/>
</clipPath>
</defs>
</svg>