<svg width="12" height="12" viewBox="0 0 12 12" fill="none" xmlns="http://www.w3.org/2000/svg">
<path d="M4.58603 8.121L6.00003 6.707L7.41403 8.121L8.12103 7.414L6.70703 6L8.12103 4.586L7.41403 3.879L6.00003 5.293L4.58603 3.879L3.87903 4.586L5.29303 6L3.87903 7.414L4.58603 8.121Z" fill="#888888"/>
<path d="M6 11C8.757 11 11 8.757 11 6C11 3.243 8.757 1 6 1C3.243 1 1 3.243 1 6C1 8.757 3.243 11 6 11ZM6 2C8.2055 2 10 3.7945 10 6C10 8.2055 8.2055 10 6 10C3.7945 10 2 8.2055 2 6C2 3.7945 3.7945 2 6 2Z" fill="#888888"/>
</svg>
